<svg viewBox="0 0 500 500" xml:space="preserve" xmlns="http://www.w3.org/2000/svg" enable-background="new 0 0 500 500"><circle cx="250" cy="250" r="250" fill="#f5f5f5" class="fill-f4f1f0"></circle><path d="M339.811 152.518v-9.701c0-5.241-4.243-9.484-9.478-9.484-5.235 0-9.478 4.243-9.478 9.484v9.646h-20.129v-9.646a9.48 9.48 0 0 0-9.483-9.484c-5.229 0-9.473 4.243-9.473 9.484v9.646h-20.122v-9.646a9.483 9.483 0 1 0-18.964 0v9.646h-20.117v-9.646a9.482 9.482 0 0 0-9.486-9.484c-5.233 0-9.478 4.243-9.478 9.484v9.646h-20.12v-9.646c0-5.241-4.245-9.484-9.48-9.484a9.483 9.483 0 0 0-9.483 9.484v9.646h-3.34c-29.56 0-26.929 34.039-26.929 34.039v15.511h231.565v-26.259c-.002 0-.918-22.694-26.005-23.236zM186.412 176.66c0 1.356-1.12 2.469-2.482 2.469h-20.41a2.482 2.482 0 0 1-2.48-2.469v-14.556a2.48 2.48 0 0 1 2.48-2.474h.999v.374c0 5.235 4.248 9.478 9.483 9.478s9.48-4.243 9.48-9.478v-.374h.448a2.483 2.483 0 0 1 2.482 2.474v14.556zm39.093 0a2.485 2.485 0 0 1-2.482 2.469h-20.407a2.48 2.48 0 0 1-2.479-2.469v-14.556a2.48 2.48 0 0 1 2.479-2.474h.987v.374c0 5.235 4.245 9.478 9.478 9.478 5.241 0 9.486-4.243 9.486-9.478v-.374h.456a2.482 2.482 0 0 1 2.482 2.474v14.556zm39.095 0c0 1.356-1.123 2.469-2.479 2.469h-20.407a2.482 2.482 0 0 1-2.482-2.469v-14.556a2.48 2.48 0 0 1 2.482-2.474h.971v.374c0 5.235 4.245 9.478 9.481 9.478 5.235 0 9.483-4.243 9.483-9.478v-.374h.472a2.484 2.484 0 0 1 2.479 2.474v14.556zm39.1 0c0 1.356-1.123 2.469-2.485 2.469h-20.41a2.475 2.475 0 0 1-2.474-2.469v-14.556a2.473 2.473 0 0 1 2.474-2.474h.966v.374c0 5.235 4.243 9.478 9.473 9.478 5.241 0 9.483-4.243 9.483-9.478v-.374h.488a2.486 2.486 0 0 1 2.485 2.474v14.556zm39.09 0a2.48 2.48 0 0 1-2.48 2.469H319.9a2.476 2.476 0 0 1-2.475-2.469v-14.556a2.473 2.473 0 0 1 2.475-2.474h.955v.374a9.477 9.477 0 0 0 9.478 9.478 9.477 9.477 0 0 0 9.478-9.478v-.374h.499a2.478 2.478 0 0 1 2.48 2.474v14.556z" fill="#ff931e" class="fill-ff931e"></path><path d="M365.625 209.37H134.25V344.038c0 12.446 10.181 22.63 22.624 22.63h186.317c12.44 0 22.623-10.184 22.623-22.63V209.37h-.189zM195.077 345.323h-29.481v-29.471h29.481v29.471zm0-44.211h-29.481v-29.481h29.481v29.481zm44.216 44.211h-29.479v-29.471h29.479v29.471zm0-44.211h-29.479v-29.481h29.479v29.481zm0-44.216h-29.479v-29.481h29.479v29.481zm44.225 88.427h-29.483v-29.471h29.483v29.471zm0-44.211h-29.483v-29.481h29.483v29.481zm0-44.216h-29.483v-29.481h29.483v29.481zm44.216 44.216h-29.486v-29.481h29.486v29.481zm0-44.216h-29.486v-29.481h29.486v29.481z" fill="#f9ea84" class="fill-675f58"></path></svg>